<?xml version="1.0" encoding="UTF-8"?>
<svg width="1024px" height="1034px" viewBox="0 0 1024 1034" version="1.1" xmlns="http://www.w3.org/2000/svg" xmlns:xlink="http://www.w3.org/1999/xlink">
    <!-- Generator: Sketch 40.1 (33804) - http://www.bohemiancoding.com/sketch -->
    <title>Untitled 3</title>
    <desc>Created with Sketch.</desc>
    <defs></defs>
    <g id="Page-1" stroke="none" stroke-width="1" fill="none" fill-rule="evenodd">
        <g id="styleguide">
            <rect id="Rectangle-path" fill="#7AACB7" x="0" y="0" width="1024" height="1024"></rect>
            <g id="Group" opacity="0.9" transform="translate(123.000000, 164.000000)" stroke-width="20" stroke="#FFFFFF">
                <g transform="translate(435.000000, 0.000000)" id="Shape">
                    <polyline points="342.9 860 342.9 0.7 0.9 0.7 0.9 860"></polyline>
                    <path d="M1,175 L129,175"></path>
                    <path d="M1,595 L129,595"></path>
                    <path d="M1,805 L129,805"></path>
                    <path d="M1,385 L129,385"></path>
                </g>
                <g transform="translate(0.000000, 196.000000)" id="Shape">
                    <path d="M274.4,664 L274.4,261.7 C274.4,261.1 273.9,260.6 273.3,260.6 L1.9,260.6 C1.3,260.6 0.8,261.1 0.8,261.7 L0.8,664"></path>
                    <polyline points="0.8 260.5 137.6 0.3 274.4 260.5"></polyline>
                    <path d="M138,260 L138,664"></path>
                    <path d="M92,87 L183,87"></path>
                </g>
            </g>
        </g>
    </g>
</svg>