<?xml version="1.0" encoding="UTF-8"?>
<svg width="572px" height="217px" viewBox="0 0 572 217" version="1.1" xmlns="http://www.w3.org/2000/svg" xmlns:xlink="http://www.w3.org/1999/xlink">
    <!-- Generator: Sketch 40.1 (33804) - http://www.bohemiancoding.com/sketch -->
    <title>logo</title>
    <desc>Created with Sketch.</desc>
    <defs>
        <rect id="path-1" x="0" y="0" width="572" height="217"></rect>
        <mask id="mask-2" maskContentUnits="userSpaceOnUse" maskUnits="objectBoundingBox" x="0" y="0" width="572" height="217" fill="white">
            <use xlink:href="#path-1"></use>
        </mask>
    </defs>
    <g id="Page-1" stroke="none" stroke-width="1" fill="none" fill-rule="evenodd">
        <g id="logo">
            <use id="Rectangle-1" stroke="#508894" mask="url(#mask-2)" stroke-width="8" xlink:href="#path-1"></use>
            <path d="M58.7246094,52.296875 L67.125,76.015625 L75.4804688,52.296875 L84.3300781,52.296875 L84.3300781,85 L77.5693359,85 L77.5693359,76.0605469 L78.2431641,60.6298828 L69.4160156,85 L64.7890625,85 L55.984375,60.6523438 L56.6582031,76.0605469 L56.6582031,85 L49.9199219,85 L49.9199219,52.296875 L58.7246094,52.296875 Z M104.342773,82.5292969 C102.740552,84.4759212 100.524428,85.4492188 97.6943359,85.4492188 C95.0888542,85.4492188 93.1010811,84.7005283 91.730957,83.203125 C90.360833,81.7057217 89.6608074,79.5120587 89.6308594,76.6220703 L89.6308594,60.6972656 L96.1220703,60.6972656 L96.1220703,76.3974609 C96.1220703,78.9280725 97.2750536,80.1933594 99.5810547,80.1933594 C101.782238,80.1933594 103.294592,79.4296951 104.118164,77.9023438 L104.118164,60.6972656 L110.631836,60.6972656 L110.631836,85 L104.522461,85 L104.342773,82.5292969 Z M128.69043,78.2841797 C128.69043,77.4905559 128.297367,76.8653994 127.51123,76.4086914 C126.725094,75.9519834 125.46355,75.5439471 123.726562,75.1845703 C117.946586,73.9716736 115.056641,71.515969 115.056641,67.8173828 C115.056641,65.661122 115.951326,63.8605215 117.740723,62.4155273 C119.53012,60.9705331 121.869777,60.2480469 124.759766,60.2480469 C127.844416,60.2480469 130.311351,60.9742766 132.160645,62.4267578 C134.009938,63.879239 134.93457,65.7659389 134.93457,68.0869141 L128.443359,68.0869141 C128.443359,67.158524 128.143883,66.3911163 127.544922,65.784668 C126.945961,65.1782196 126.010098,64.875 124.737305,64.875 C123.6442,64.875 122.79818,65.1220678 122.199219,65.6162109 C121.600257,66.110354 121.300781,66.739254 121.300781,67.5029297 C121.300781,68.2216833 121.641435,68.8019184 122.322754,69.2436523 C123.004072,69.6853863 124.153312,70.0672184 125.770508,70.3891602 C127.387703,70.7111019 128.75032,71.0742167 129.858398,71.4785156 C133.287452,72.7363344 135.001953,74.9150236 135.001953,78.0146484 C135.001953,80.2308054 134.051116,82.0239189 132.149414,83.394043 C130.247712,84.764167 127.792007,85.4492188 124.782227,85.4492188 C122.745758,85.4492188 120.937671,85.0861039 119.35791,84.3598633 C117.77815,83.6336227 116.539067,82.6378644 115.640625,81.3725586 C114.742183,80.1072528 114.292969,78.7408928 114.292969,77.2734375 L120.447266,77.2734375 C120.507162,78.4264381 120.933915,79.3098928 121.727539,79.9238281 C122.521163,80.5377635 123.584303,80.8447266 124.916992,80.8447266 C126.159837,80.8447266 127.099443,80.6088891 127.73584,80.137207 C128.372236,79.665525 128.69043,79.0478554 128.69043,78.2841797 L128.69043,78.2841797 Z M150.365234,85.4492188 C146.801414,85.4492188 143.900239,84.3561307 141.661621,82.1699219 C139.423003,79.983713 138.303711,77.0713073 138.303711,73.4326172 L138.303711,72.8037109 C138.303711,70.3629435 138.775386,68.1805109 139.71875,66.2563477 C140.662114,64.3321844 141.998527,62.8497773 143.728027,61.809082 C145.457528,60.7683867 147.430327,60.2480469 149.646484,60.2480469 C152.97072,60.2480469 155.587393,61.2962135 157.496582,63.3925781 C159.405771,65.4889428 160.360352,68.4612438 160.360352,72.3095703 L160.360352,74.9599609 L144.884766,74.9599609 C145.094402,76.5472085 145.727046,77.8199822 146.782715,78.7783203 C147.838384,79.7366584 149.174797,80.2158203 150.791992,80.2158203 C153.292656,80.2158203 155.246738,79.3099049 156.654297,77.4980469 L159.84375,81.0693359 C158.870438,82.446947 157.552743,83.5213178 155.890625,84.2924805 C154.228507,85.0636432 152.386729,85.4492188 150.365234,85.4492188 L150.365234,85.4492188 Z M149.624023,65.5039062 C148.336257,65.5039062 147.291833,65.9381467 146.490723,66.8066406 C145.689612,67.6751346 145.176759,68.9179607 144.952148,70.5351562 L153.981445,70.5351562 L153.981445,70.0185547 C153.951497,68.5810475 153.562178,67.4692422 152.813477,66.6831055 C152.064775,65.8969687 151.001634,65.5039062 149.624023,65.5039062 L149.624023,65.5039062 Z M163.033203,72.6240234 C163.033203,70.2132041 163.497391,68.0644626 164.425781,66.1777344 C165.354171,64.2910062 166.690584,62.8310599 168.435059,61.7978516 C170.179533,60.7646433 172.204741,60.2480469 174.510742,60.2480469 C177.790055,60.2480469 180.466624,61.2512921 182.540527,63.2578125 C184.614431,65.2643329 185.771158,67.9895661 186.010742,71.4335938 L186.055664,73.0957031 C186.055664,76.8242374 185.014984,79.8152557 182.933594,82.0688477 C180.852203,84.3224397 178.059588,85.4492188 174.555664,85.4492188 C171.05174,85.4492188 168.255382,84.3261831 166.166504,82.0800781 C164.077626,79.8339731 163.033203,76.7793162 163.033203,72.9160156 L163.033203,72.6240234 Z M169.524414,73.0957031 C169.524414,75.4017042 169.958655,77.1648702 170.827148,78.3852539 C171.695642,79.6056376 172.938468,80.2158203 174.555664,80.2158203 C176.127938,80.2158203 177.35579,79.6131245 178.239258,78.4077148 C179.122726,77.2023052 179.564453,75.2744273 179.564453,72.6240234 C179.564453,70.3629444 179.122726,68.6110088 178.239258,67.3681641 C177.35579,66.1253193 176.112964,65.5039062 174.510742,65.5039062 C172.923495,65.5039062 171.695642,66.1215759 170.827148,67.3569336 C169.958655,68.5922913 169.524414,70.5051954 169.524414,73.0957031 L169.524414,73.0957031 Z M214.019531,76.8916016 L221.431641,52.296875 L228.933594,52.296875 L217.545898,85 L210.515625,85 L199.172852,52.296875 L206.652344,52.296875 L214.019531,76.8916016 Z M238.43457,85 L231.920898,85 L231.920898,60.6972656 L238.43457,60.6972656 L238.43457,85 Z M231.539062,54.4082031 C231.539062,53.434891 231.864743,52.6337922 232.516113,52.0048828 C233.167484,51.3759734 234.054682,51.0615234 235.177734,51.0615234 C236.285813,51.0615234 237.169268,51.3759734 237.828125,52.0048828 C238.486982,52.6337922 238.816406,53.434891 238.816406,54.4082031 C238.816406,55.3964893 238.483239,56.205075 237.816895,56.8339844 C237.15055,57.4628938 236.270839,57.7773438 235.177734,57.7773438 C234.08463,57.7773438 233.204919,57.4628938 232.538574,56.8339844 C231.87223,56.205075 231.539062,55.3964893 231.539062,54.4082031 L231.539062,54.4082031 Z M257.436523,66.7841797 C256.553055,66.6643874 255.774417,66.6044922 255.100586,66.6044922 C252.644844,66.6044922 251.03516,67.4355386 250.271484,69.0976562 L250.271484,85 L243.780273,85 L243.780273,60.6972656 L249.912109,60.6972656 L250.091797,63.5947266 C251.394538,61.3635956 253.198882,60.2480469 255.504883,60.2480469 C256.223636,60.2480469 256.897458,60.3453766 257.526367,60.5400391 L257.436523,66.7841797 Z M269.453125,54.7226562 L269.453125,60.6972656 L273.608398,60.6972656 L273.608398,65.4589844 L269.453125,65.4589844 L269.453125,77.5878906 C269.453125,78.4863326 269.625324,79.1302064 269.969727,79.5195312 C270.314129,79.9088561 270.972977,80.1035156 271.946289,80.1035156 C272.665043,80.1035156 273.30143,80.0511073 273.855469,79.9462891 L273.855469,84.8652344 C272.582676,85.2545592 271.272468,85.4492188 269.924805,85.4492188 C265.372699,85.4492188 263.051758,83.1507391 262.961914,78.5537109 L262.961914,65.4589844 L259.413086,65.4589844 L259.413086,60.6972656 L262.961914,60.6972656 L262.961914,54.7226562 L269.453125,54.7226562 Z M291.779297,82.5292969 C290.177075,84.4759212 287.960952,85.4492188 285.130859,85.4492188 C282.525378,85.4492188 280.537605,84.7005283 279.16748,83.203125 C277.797356,81.7057217 277.097331,79.5120587 277.067383,76.6220703 L277.067383,60.6972656 L283.558594,60.6972656 L283.558594,76.3974609 C283.558594,78.9280725 284.711577,80.1933594 287.017578,80.1933594 C289.218761,80.1933594 290.731116,79.4296951 291.554688,77.9023438 L291.554688,60.6972656 L298.068359,60.6972656 L298.068359,85 L291.958984,85 L291.779297,82.5292969 Z M317.047852,85 C316.748371,84.4160127 316.531251,83.689783 316.396484,82.8212891 C314.824211,84.5732509 312.780286,85.4492188 310.264648,85.4492188 C307.883777,85.4492188 305.910978,84.7604236 304.346191,83.3828125 C302.781405,82.0052014 301.999023,80.2682396 301.999023,78.171875 C301.999023,75.5963413 302.953604,73.6197986 304.862793,72.2421875 C306.771982,70.8645764 309.530906,70.1682943 313.139648,70.1533203 L316.126953,70.1533203 L316.126953,68.7607422 C316.126953,67.6376897 315.838707,66.7392612 315.262207,66.0654297 C314.685707,65.3915982 313.776048,65.0546875 312.533203,65.0546875 C311.440099,65.0546875 310.582848,65.3167292 309.961426,65.8408203 C309.340003,66.3649115 309.029297,67.0836543 309.029297,67.9970703 L302.538086,67.9970703 C302.538086,66.5895112 302.972326,65.2867898 303.84082,64.0888672 C304.709314,62.8909445 305.937167,61.951338 307.524414,61.2700195 C309.111662,60.588701 310.893545,60.2480469 312.870117,60.2480469 C315.864924,60.2480469 318.242016,61.0004808 320.001465,62.5053711 C321.760914,64.0102614 322.640625,66.1253119 322.640625,68.8505859 L322.640625,79.3847656 C322.655599,81.6907667 322.977536,83.4352154 323.606445,84.6181641 L323.606445,85 L317.047852,85 Z M311.679688,80.4853516 C312.638026,80.4853516 313.52148,80.2719748 314.330078,79.8452148 C315.138676,79.4184549 315.737628,78.8457067 316.126953,78.1269531 L316.126953,73.9492188 L313.701172,73.9492188 C310.451807,73.9492188 308.722332,75.0722544 308.512695,77.3183594 L308.490234,77.7001953 C308.490234,78.5087931 308.774737,79.1751276 309.34375,79.6992188 C309.912763,80.2233099 310.691401,80.4853516 311.679688,80.4853516 L311.679688,80.4853516 Z M334.477539,85 L327.963867,85 L327.963867,50.5 L334.477539,50.5 L334.477539,85 Z M351.008789,85.4492188 C347.444969,85.4492188 344.543794,84.3561307 342.305176,82.1699219 C340.066558,79.983713 338.947266,77.0713073 338.947266,73.4326172 L338.947266,72.8037109 C338.947266,70.3629435 339.418941,68.1805109 340.362305,66.2563477 C341.305669,64.3321844 342.642081,62.8497773 344.371582,61.809082 C346.101083,60.7683867 348.073882,60.2480469 350.290039,60.2480469 C353.614274,60.2480469 356.230947,61.2962135 358.140137,63.3925781 C360.049326,65.4889428 361.003906,68.4612438 361.003906,72.3095703 L361.003906,74.9599609 L345.52832,74.9599609 C345.737957,76.5472085 346.3706,77.8199822 347.42627,78.7783203 C348.481939,79.7366584 349.818351,80.2158203 351.435547,80.2158203 C353.93621,80.2158203 355.890292,79.3099049 357.297852,77.4980469 L360.487305,81.0693359 C359.513993,82.446947 358.196297,83.5213178 356.53418,84.2924805 C354.872062,85.0636432 353.030284,85.4492188 351.008789,85.4492188 L351.008789,85.4492188 Z M350.267578,65.5039062 C348.979811,65.5039062 347.935388,65.9381467 347.134277,66.8066406 C346.333167,67.6751346 345.820314,68.9179607 345.595703,70.5351562 L354.625,70.5351562 L354.625,70.0185547 C354.595052,68.5810475 354.205733,67.4692422 353.457031,66.6831055 C352.70833,65.8969687 351.645189,65.5039062 350.267578,65.5039062 L350.267578,65.5039062 Z M375.131836,72.6689453 C375.131836,68.8805149 375.9816,65.8632925 377.681152,63.6171875 C379.380705,61.3710825 381.705389,60.2480469 384.655273,60.2480469 C387.021171,60.2480469 388.975253,61.1315016 390.517578,62.8984375 L390.517578,50.5 L397.03125,50.5 L397.03125,85 L391.168945,85 L390.854492,82.4169922 C389.237297,84.4384867 387.155937,85.4492188 384.610352,85.4492188 C381.750311,85.4492188 379.455575,84.3224397 377.726074,82.0688477 C375.996573,79.8152557 375.131836,76.6819862 375.131836,72.6689453 L375.131836,72.6689453 Z M381.623047,73.140625 C381.623047,75.416678 382.019853,77.1611267 382.813477,78.3740234 C383.6071,79.5869201 384.760084,80.1933594 386.272461,80.1933594 C388.278981,80.1933594 389.694006,79.3473392 390.517578,77.6552734 L390.517578,68.0644531 C389.70898,66.3723874 388.308929,65.5263672 386.317383,65.5263672 C383.18781,65.5263672 381.623047,68.0644277 381.623047,73.140625 L381.623047,73.140625 Z M408.913086,85 L402.399414,85 L402.399414,60.6972656 L408.913086,60.6972656 L408.913086,85 Z M402.017578,54.4082031 C402.017578,53.434891 402.343258,52.6337922 402.994629,52.0048828 C403.645999,51.3759734 404.533198,51.0615234 405.65625,51.0615234 C406.764328,51.0615234 407.647783,51.3759734 408.306641,52.0048828 C408.965498,52.6337922 409.294922,53.434891 409.294922,54.4082031 C409.294922,55.3964893 408.961755,56.205075 408.29541,56.8339844 C407.629066,57.4628938 406.749354,57.7773438 405.65625,57.7773438 C404.563146,57.7773438 403.683434,57.4628938 403.01709,56.8339844 C402.350745,56.205075 402.017578,55.3964893 402.017578,54.4082031 L402.017578,54.4082031 Z" id="Museo-Virtuale-di" fill="#508894"></path>
            <path d="M60.7851562,165 L50.2382812,165 L50.2382812,113.8125 L60.7851562,113.8125 L60.7851562,165 Z M112.183594,165 L101.636719,165 L81.1054688,131.320312 L81.1054688,165 L70.5585938,165 L70.5585938,113.8125 L81.1054688,113.8125 L101.671875,147.5625 L101.671875,113.8125 L112.183594,113.8125 L112.183594,165 Z M152.191406,144.082031 L131.941406,144.082031 L131.941406,165 L121.394531,165 L121.394531,113.8125 L154.722656,113.8125 L154.722656,122.355469 L131.941406,122.355469 L131.941406,135.574219 L152.191406,135.574219 L152.191406,144.082031 Z M202.886719,140.566406 C202.886719,145.605494 201.996103,150.023419 200.214844,153.820312 C198.433585,157.617206 195.884782,160.546865 192.568359,162.609375 C189.251937,164.671885 185.44924,165.703125 181.160156,165.703125 C176.917948,165.703125 173.132829,164.683604 169.804688,162.644531 C166.476546,160.605459 163.898447,157.693378 162.070312,153.908203 C160.242178,150.123028 159.316406,145.769556 159.292969,140.847656 L159.292969,138.316406 C159.292969,133.277319 160.201163,128.841816 162.017578,125.009766 C163.833993,121.177715 166.400374,118.236338 169.716797,116.185547 C173.03322,114.134755 176.824197,113.109375 181.089844,113.109375 C185.35549,113.109375 189.146468,114.134755 192.462891,116.185547 C195.779313,118.236338 198.345694,121.177715 200.162109,125.009766 C201.978525,128.841816 202.886719,133.2656 202.886719,138.28125 L202.886719,140.566406 Z M192.199219,138.246094 C192.199219,132.878879 191.238291,128.800795 189.316406,126.011719 C187.394522,123.222642 184.652362,121.828125 181.089844,121.828125 C177.550764,121.828125 174.820322,123.205064 172.898438,125.958984 C170.976553,128.712904 170.003906,132.749973 169.980469,138.070312 L169.980469,140.566406 C169.980469,145.792995 170.941397,149.847642 172.863281,152.730469 C174.785166,155.613296 177.550763,157.054688 181.160156,157.054688 C184.699236,157.054688 187.417959,155.66603 189.316406,152.888672 C191.214853,150.111314 192.175781,146.062527 192.199219,140.742188 L192.199219,138.246094 Z M229.5,146.261719 L221.097656,146.261719 L221.097656,165 L210.550781,165 L210.550781,113.8125 L229.570312,113.8125 C235.617218,113.8125 240.281234,115.160143 243.5625,117.855469 C246.843766,120.550795 248.484375,124.35935 248.484375,129.28125 C248.484375,132.773455 247.728523,135.685535 246.216797,138.017578 C244.705071,140.349621 242.414078,142.207024 239.34375,143.589844 L250.417969,164.507812 L250.417969,165 L239.097656,165 L229.5,146.261719 Z M221.097656,137.71875 L229.605469,137.71875 C232.253919,137.71875 234.30468,137.044929 235.757812,135.697266 C237.210945,134.349603 237.9375,132.492199 237.9375,130.125 C237.9375,127.710925 237.25196,125.812507 235.880859,124.429688 C234.509759,123.046868 232.406264,122.355469 229.570312,122.355469 L221.097656,122.355469 L221.097656,137.71875 Z M270.28125,113.8125 L283.429688,150.9375 L296.507812,113.8125 L310.359375,113.8125 L310.359375,165 L299.777344,165 L299.777344,151.007812 L300.832031,126.855469 L287.015625,165 L279.773438,165 L265.992188,126.890625 L267.046875,151.007812 L267.046875,165 L256.5,165 L256.5,113.8125 L270.28125,113.8125 Z M349.101562,154.453125 L330.609375,154.453125 L327.09375,165 L315.878906,165 L334.933594,113.8125 L344.707031,113.8125 L363.867188,165 L352.652344,165 L349.101562,154.453125 Z M333.457031,145.910156 L346.253906,145.910156 L339.820312,126.75 L333.457031,145.910156 Z M402.960938,122.355469 L387.28125,122.355469 L387.28125,165 L376.734375,165 L376.734375,122.355469 L361.265625,122.355469 L361.265625,113.8125 L402.960938,113.8125 L402.960938,122.355469 Z M420.1875,165 L409.640625,165 L409.640625,113.8125 L420.1875,113.8125 L420.1875,165 Z M470.144531,147.949219 C469.746092,153.457059 467.712909,157.792953 464.044922,160.957031 C460.376935,164.12111 455.542999,165.703125 449.542969,165.703125 C442.980436,165.703125 437.818378,163.494163 434.056641,159.076172 C430.294903,154.658181 428.414062,148.593789 428.414062,140.882812 L428.414062,137.753906 C428.414062,132.832007 429.281241,128.496112 431.015625,124.746094 C432.750009,120.996075 435.2285,118.119151 438.451172,116.115234 C441.673844,114.111318 445.417947,113.109375 449.683594,113.109375 C455.589873,113.109375 460.347638,114.69139 463.957031,117.855469 C467.566424,121.019547 469.652341,125.460909 470.214844,131.179688 L459.667969,131.179688 C459.410155,127.874983 458.490242,125.478523 456.908203,123.990234 C455.326164,122.501946 452.917985,121.757812 449.683594,121.757812 C446.167951,121.757812 443.537118,123.017566 441.791016,125.537109 C440.044913,128.056653 439.148438,131.964817 439.101562,137.261719 L439.101562,141.128906 C439.101562,146.660184 439.939445,150.703112 441.615234,153.257812 C443.291024,155.812513 445.933576,157.089844 449.542969,157.089844 C452.800798,157.089844 455.232414,156.345711 456.837891,154.857422 C458.443367,153.369133 459.36328,151.066422 459.597656,147.949219 L470.144531,147.949219 Z M505.96875,154.453125 L487.476562,154.453125 L483.960938,165 L472.746094,165 L491.800781,113.8125 L501.574219,113.8125 L520.734375,165 L509.519531,165 L505.96875,154.453125 Z M490.324219,145.910156 L503.121094,145.910156 L496.6875,126.75 L490.324219,145.910156 Z" id="INFORMATICA" fill="#508894"></path>
        </g>
    </g>
</svg>